<?xml version="1.0" encoding="iso-8859-1"?>
<!-- Generator: Adobe Illustrator 19.0.0, SVG Export Plug-In . SVG Version: 6.00 Build 0)  -->
<svg version="1.1" id="Capa_1" xmlns="http://www.w3.org/2000/svg" xmlns:xlink="http://www.w3.org/1999/xlink" x="0px" y="0px"
	 viewBox="0 0 512 512" style="enable-background:new 0 0 512 512;" xml:space="preserve">
<g>
	<g>
		<path d="M407,106c-24.813,0-45,20.187-45,45s20.187,45,45,45s45-20.187,45-45S431.813,106,407,106z M407,166
			c-8.271,0-15-6.729-15-15s6.729-15,15-15s15,6.729,15,15S415.271,166,407,166z"/>
	</g>
</g>
<g>
	<g>
		<path d="M105,106c-24.813,0-45,20.187-45,45s20.187,45,45,45s45-20.187,45-45S129.813,106,105,106z M105,166
			c-8.271,0-15-6.729-15-15s6.729-15,15-15s15,6.729,15,15S113.271,166,105,166z"/>
	</g>
</g>
<g>
	<g>
		<path d="M316,106H196c-8.284,0-15,6.716-15,15v60c0,8.284,6.716,15,15,15h120c8.284,0,15-6.716,15-15v-60
			C331,112.716,324.284,106,316,106z M301,166h-90v-30h90V166z"/>
	</g>
</g>
<g>
	<g>
		<path d="M437,46H75C33.645,46,0,79.645,0,121v300c0,24.813,20.101,45,44.808,45h422.384C491.899,466,512,445.813,512,421V121
			C512,79.506,478.34,46,437,46z M422,436H90V316h30v75c0,8.284,6.716,15,15,15s15-6.716,15-15v-75h31v75c0,8.284,6.716,15,15,15
			s15-6.716,15-15v-75h30v75c0,8.284,6.716,15,15,15s15-6.716,15-15v-75h30v75c0,8.284,6.716,15,15,15s15-6.716,15-15v-75h31v75
			c0,8.284,6.716,15,15,15s15-6.716,15-15v-75h30V436z M482,421c0,8.271-6.643,15-14.808,15H452V301c0-8.284-6.716-15-15-15H75
			c-8.284,0-15,6.716-15,15v135H44.808C36.643,436,30,429.271,30,421V256h452V421z M482,226H30V121c0-24.813,20.187-45,45-45h362
			c24.794,0,45,20.088,45,45V226z"/>
	</g>
</g>
<g>
</g>
<g>
</g>
<g>
</g>
<g>
</g>
<g>
</g>
<g>
</g>
<g>
</g>
<g>
</g>
<g>
</g>
<g>
</g>
<g>
</g>
<g>
</g>
<g>
</g>
<g>
</g>
<g>
</g>
</svg>
