<?xml version="1.0" encoding="iso-8859-1"?>
<!-- Generator: Adobe Illustrator 19.0.0, SVG Export Plug-In . SVG Version: 6.00 Build 0)  -->
<svg version="1.1" id="Capa_1" xmlns="http://www.w3.org/2000/svg" xmlns:xlink="http://www.w3.org/1999/xlink" x="0px" y="0px"
	 viewBox="0 0 512.013 512.013" style="enable-background:new 0 0 512.013 512.013;" xml:space="preserve">
<g>
	<g>
		<path d="M496.007,288.007c8.832,0,16-7.168,16-16v-64c0-8.832-7.168-16-16-16h-480c-8.832,0-16,7.168-16,16v64
			c0,8.832,7.168,16,16,16h16v192h-16c-8.832,0-16,7.168-16,16c0,8.832,7.168,16,16,16h480c8.832,0,16-7.168,16-16
			c0-8.832-7.168-16-16-16h-16v-192H496.007z M144.007,480.007h-80V306.791l80,68.576V480.007z M91.239,288.007h126.144
			l-58.208,58.208L91.239,288.007z M336.007,480.007h-160V374.663l80-80l80,80V480.007z M294.631,288.007h126.144l-67.936,58.208
			L294.631,288.007z M448.007,480.007h-80v-104.64l80-68.576V480.007z M32.007,256.007v-32h448v32H32.007z"/>
	</g>
</g>
<g>
	<g>
		<path d="M509.735,7.783c-4.544-7.584-14.432-10.016-21.952-5.472L366.375,75.175c-8.32-6.88-18.784-11.168-30.368-11.168
			c-26.464,0-48,21.536-48,48s21.536,48,48,48s48-21.536,48-48c0-3.264-0.352-6.464-0.96-9.568l121.184-72.704
			C511.815,25.191,514.279,15.367,509.735,7.783z M336.007,128.007c-8.8,0-16-7.168-16-16c0-8.832,7.2-16,16-16
			c5.792,0,10.624,3.232,13.44,7.872c0,0.032,0,0.032,0.032,0.064c0,0.032,0.032,0.032,0.064,0.064c1.408,2.368,2.464,5.024,2.464,8
			C352.007,120.839,344.807,128.007,336.007,128.007z"/>
	</g>
</g>
<g>
	<g>
		<path d="M176.007,64.007c-11.584,0-22.048,4.288-30.368,11.136L24.231,2.279C16.775-2.233,6.855,0.167,2.279,7.783
			c-4.544,7.552-2.08,17.408,5.504,21.952l121.184,72.704c-0.608,3.104-0.96,6.304-0.96,9.568c0,26.464,21.536,48,48,48
			s48-21.536,48-48S202.471,64.007,176.007,64.007z M176.007,128.007c-8.8,0-16-7.168-16-16c0-2.976,1.056-5.632,2.464-8.032
			c0-0.032,0.032-0.032,0.064-0.064c0-0.032,0-0.032,0.032-0.064c2.816-4.576,7.648-7.84,13.44-7.84c8.8,0,16,7.168,16,16
			C192.007,120.839,184.807,128.007,176.007,128.007z"/>
	</g>
</g>
<g>
</g>
<g>
</g>
<g>
</g>
<g>
</g>
<g>
</g>
<g>
</g>
<g>
</g>
<g>
</g>
<g>
</g>
<g>
</g>
<g>
</g>
<g>
</g>
<g>
</g>
<g>
</g>
<g>
</g>
</svg>
