<svg id="Capa_1" enable-background="new 0 0 480.003 480.003" height="512" viewBox="0 0 480.003 480.003" width="512" xmlns="http://www.w3.org/2000/svg"><path d="m479.762 462.06-8-32c-1.072-4.286-5.414-6.892-9.7-5.821l-9.18 2.3-4.12-16.478 9.18-2.295c4.286-1.072 6.892-5.414 5.821-9.7l-8-32-21.147-84.59c8.867-23.481 13.402-48.376 13.385-73.476 0-114.691-93.309-208-208-208s-208 93.309-208 208c-.016 25.098 4.519 49.991 13.386 73.47l-21.147 84.59-8 32c-1.071 4.286 1.535 8.628 5.821 9.7l9.18 2.295-4.12 16.478-9.18-2.3c-4.286-1.071-8.628 1.535-9.7 5.821l-8 32c-1.071 4.286 1.535 8.628 5.821 9.7l32 8c4.279 1.075 8.62-1.522 9.695-5.801.002-.007.003-.013.005-.02l8-32c1.071-4.286-1.535-8.628-5.821-9.7l-7.3-1.824 4.119-16.478 7.3 1.824c4.279 1.075 8.62-1.522 9.695-5.801.002-.007.003-.013.005-.02l8-32 9.022-36.085c25.079 29.903 58.081 52.129 95.219 64.128v66.023c0 4.418 3.582 8 8 8h112c4.418 0 8-3.582 8-8v-66.023c37.136-11.997 70.138-34.221 95.217-64.122l9.022 36.085 8 32c1.064 4.282 5.398 6.89 9.68 5.826.007-.002.013-.003.02-.005l7.3-1.824 4.119 16.478-7.3 1.824c-4.286 1.072-6.892 5.414-5.821 9.7l8 32c1.064 4.282 5.398 6.89 9.68 5.826.007-.002.013-.003.02-.005l32-8c4.287-1.07 6.894-5.413 5.824-9.7zm-445.582.24-16.479-4.121 4.121-16.479 16.477 4.12zm16-64-16.479-4.121 4.121-16.479 16.478 4.12zm8-32-16.479-4.121 14.291-57.166c3.731 7.065 7.865 13.91 12.382 20.5zm169.463 55.283c-4.856-19.422-4.856-39.742 0-59.164l2.6-10.418h19.508l2.6 10.418c4.856 19.422 4.856 39.742 0 59.164l-2.596 10.417h-19.508zm43.915-40.416c5.554-1.007 11.035-2.274 16.443-3.8v16.589c-5.284 1.356-10.656 2.494-16.117 3.414.069-1.788.117-3.577.117-5.367 0-3.619-.158-7.233-.443-10.837zm-2.18-15.862c-.447-2.266-.936-4.525-1.5-6.767l-4.12-16.477c-.889-3.56-4.087-6.059-7.757-6.061h-8v-16h40v40.66c-6.108 1.921-12.327 3.471-18.623 4.64zm-37.377-157.305v-16h16v16zm16 63.482v-47.482h8c4.418 0 8-3.582 8-8v-32c0-4.418-3.582-8-8-8h-32c-4.418 0-8 3.582-8 8v32c0 4.418 3.582 8 8 8h8v47.482c-35.069-4.418-59.916-36.429-55.498-71.498s36.429-59.916 71.498-55.498 59.916 36.429 55.498 71.498c-3.654 29.003-26.495 51.844-55.498 55.498zm-48 16.518h80c4.416.005 7.995 3.584 8 8v8h-96v-8c.005-4.416 3.584-7.995 8-8zm104 8c-.015-10.693-7.092-20.091-17.365-23.06 35.899-25.756 44.122-75.737 18.366-111.636s-75.737-44.122-111.636-18.366-44.122 75.736-18.366 111.636c5.081 7.082 11.285 13.286 18.366 18.366-10.273 2.969-17.35 12.367-17.365 23.06v58.67c-58.303-25.469-95.99-83.047-96-146.67 0-88.225 71.776-160 160-160s160 71.775 160 160c-.01 63.623-37.697 121.201-96 146.67zm-112 24h40v16h-8c-3.671 0-6.871 2.499-7.761 6.06l-4.12 16.477c-.56 2.242-1.049 4.5-1.5 6.767-6.294-1.171-12.512-2.722-18.619-4.644zm16.443 61.166c-.285 3.6-.443 7.218-.443 10.834 0 1.79.048 3.579.117 5.367-5.46-.911-10.832-2.049-16.117-3.414v-16.589c5.4 1.53 10.881 2.797 16.443 3.802zm1.3 32.645c.627 3.914 1.419 7.798 2.374 11.652l1.637 6.537h-21.754v-21.567c5.819 1.371 11.734 2.497 17.745 3.378zm78.257 50.189h-96v-16h96zm0-32h-21.754l1.635-6.537c.962-3.848 1.753-7.732 2.374-11.652 6.008-.875 11.923-2.001 17.745-3.378zm16-42.91v-17.115c67.536-26.383 111.992-91.469 112-163.975 0-97.047-78.953-176-176-176s-176 78.953-176 176c.008 72.506 44.464 137.592 112 163.975v17.115c-76.712-27.164-127.99-99.71-128-181.09 0-105.869 86.131-192 192-192s192 86.131 192 192c-.01 81.38-51.288 153.926-128 181.09zm120.007-84.078 14.293 57.167-16.478 4.12-10.2-40.783c4.518-6.592 8.653-13.438 12.385-20.504zm1.694 76.809 16.478-4.12 4.119 16.478-16.477 4.12zm20.12 80.478-4.121-16.478 16.477-4.12 4.119 16.478z"/></svg>