<svg id="Capa_1" enable-background="new 0 0 511.83 511.83" height="512" viewBox="0 0 511.83 511.83" width="512" xmlns="http://www.w3.org/2000/svg"><g><g><g><path d="m46.128 164.033c-4.338.957-7.079 5.249-6.122 9.586.957 4.338 5.248 7.079 9.586 6.122s7.079-5.249 6.122-9.586-5.248-7.078-9.586-6.122z"/><path d="m120.888 147.546c-4.338.957-7.079 5.249-6.122 9.586.957 4.338 5.249 7.079 9.586 6.122 4.338-.957 7.079-5.249 6.122-9.586-.956-4.337-5.248-7.078-9.586-6.122z"/><path d="m195.648 131.059c-4.338.957-7.079 5.249-6.122 9.586s5.249 7.079 9.586 6.122c4.338-.957 7.079-5.249 6.122-9.586-.956-4.338-5.248-7.079-9.586-6.122z"/><path d="m219.313 211.316c14.839-23.236 20.69-50.956 17.226-77.875-1.075-8.358-3.048-16.638-5.929-24.683-.004-.011-.008-.021-.012-.032-8.683-23.982-24.911-44.339-46.766-58.297-26.226-16.748-57.405-22.281-87.792-15.58-38.398 8.468-70.458 36.539-84.142 73.376-2.346 6.315-4.126 12.841-5.349 19.465-1.641 8.892-2.176 17.987-1.709 27.015.801 15.467 4.397 29.894 11.038 43.903.07.148.153.288.233.43 5.328 11.114 12.391 21.352 20.998 30.295 2.873 2.985 7.621 3.076 10.604.203 2.985-2.873 3.076-7.62.203-10.604-3.312-3.441-6.359-7.105-9.134-10.955l10.57 3.121c1.866.551 3.764.821 5.646.82 4.733 0 9.354-1.707 13.029-4.937l21.539-18.932c1.244-1.094 2.935-1.468 4.524-.998l27.506 8.117c6.558 1.936 13.538.395 18.672-4.118l21.542-18.934c1.244-1.094 2.936-1.465 4.523-.998l27.517 8.117c6.554 1.934 13.535.395 18.67-4.118l8.322-7.314c-2.397 12.44-7.149 24.44-14.173 35.439-14.592 22.849-37.208 38.648-63.683 44.486-23.304 5.141-47.766 1.886-68.875-9.162-3.669-1.921-8.201-.502-10.123 3.167-1.92 3.67-.502 8.202 3.167 10.123 10.099 5.285 20.866 9.005 31.925 11.133l3.186 14.447c2.295 10.406 11.227 17.654 21.364 18.309l32.551 185.108c1.764 10.145 7.445 18.89 15.997 24.626 6.243 4.187 13.388 6.35 20.704 6.35 12.986 0 25.275-6.858 32.031-17.98 5.346-8.8 6.821-19.124 4.158-29.055l-48.328-181.634c8.922-4.859 13.973-15.199 11.679-25.606l-3.169-14.371c11.796-8.501 21.997-19.243 30.06-31.867zm-120.042-161.817c26.473-5.839 53.638-1.019 76.487 13.574 10.785 6.887 19.996 15.564 27.334 25.588l-14.285 12.555c-1.245 1.093-2.938 1.465-4.524.998l-27.517-8.117c-6.554-1.934-13.535-.394-18.67 4.118l-21.542 18.935c-1.244 1.094-2.933 1.467-4.523.998l-27.507-8.117c-6.557-1.935-13.537-.396-18.671 4.118l-21.541 18.931c-1.245 1.094-2.936 1.467-4.524.998l-18.175-5.367c7.701-38.226 37.196-70.289 77.658-79.212zm103.349 114.352c-1.245 1.093-2.938 1.464-4.524.998l-27.517-8.117c-6.554-1.933-13.535-.395-18.67 4.118l-21.542 18.935c-1.244 1.092-2.934 1.466-4.524.997l-27.506-8.117c-6.557-1.935-13.537-.396-18.672 4.118l-21.54 18.933c-1.244 1.094-2.937 1.466-4.524.998l-25.505-7.531c-2.122-4.876-3.875-9.926-5.218-15.117-2.549-9.849-3.621-20.1-3.135-30.267l15.796 4.665c6.558 1.936 13.539.398 18.675-4.117l21.541-18.933c1.244-1.094 2.935-1.467 4.523-.998l27.507 8.117c6.558 1.936 13.538.396 18.671-4.118l21.542-18.934c1.244-1.094 2.936-1.466 4.523-.998l27.517 8.117c6.555 1.935 13.535.395 18.67-4.118l12.396-10.894c2.048 3.924 3.833 7.978 5.351 12.143.02.055.04.109.06.164 1.512 4.181 2.766 8.498 3.727 12.857 1.419 6.436 2.215 12.988 2.374 19.524zm-85.704 110.356-2.046-9.278c2.09.113 4.184.177 6.28.177 8.38 0 16.79-.903 25.069-2.729 10.427-2.3 20.333-5.946 29.524-10.803l2.031 9.211c.999 4.53-1.874 9.029-6.404 10.028l-44.426 9.798c-4.534.998-9.03-1.874-10.028-6.404zm97.664 194.459c1.596 5.952.713 12.13-2.486 17.396-6.564 10.805-21.085 13.984-31.56 6.96-5.118-3.432-8.518-8.666-9.576-14.751l-32.503-184.838 27.865-6.145z"/><path d="m502.535 84.193c-5.365-18.468-15.319-35.531-28.767-49.278-13.82-14.128-31.203-24.55-50.156-30.141-10.958-3.233-22.379-4.858-33.804-4.77-20.952.163-41.714 6.124-59.618 16.994-17.66 10.721-32.337 26.101-42.079 44.204-6.715 12.478-11.039 25.809-12.95 39.88-3.316 24.418 1.395 49.498 13.17 71.129 7.161 13.154 16.587 24.581 27.76 33.884l-4.165 14.117c-1.77 5.998-1.098 12.327 1.893 17.819 1.924 3.534 4.667 6.438 7.971 8.54l-11.431 33.388c-1.342 3.918.748 8.183 4.667 9.525 3.919 1.341 8.183-.747 9.525-4.667l10.924-31.906 27.722 7.109-45.259 181.88c-1.476 5.982-5.232 10.966-10.577 14.033-10.809 6.202-25.317 1.876-30.998-9.144-2.824-5.477-3.274-11.702-1.262-17.542l38.062-111.17c1.342-3.918-.748-8.183-4.667-9.525-3.916-1.339-8.183.748-9.525 4.667l-38.057 111.156c-3.354 9.735-2.603 20.137 2.116 29.288 4.719 9.152 12.756 15.796 22.633 18.709 9.789 2.888 20.229 1.698 29.164-3.43 8.93-5.125 15.207-13.453 17.67-23.435l45.383-182.382c.056 0 .113.006.169.006 3.858 0 7.679-.964 11.162-2.86 5.493-2.99 9.492-7.94 11.262-13.939l4.188-14.197c15.577-1.924 30.735-6.994 44.339-14.874 8.828-5.114 16.986-11.381 24.194-18.602 3.638-3.645 7.033-7.531 10.156-11.627 4.649-6.097 8.63-12.51 11.976-19.374 4.425-9.078 7.665-18.759 9.628-28.68 1.552-7.842 2.265-15.503 2.192-23.475-.098-10.806-1.59-20.914-4.611-31.31zm-111.839-69.191c9.483 0 19.125 1.342 28.672 4.158 39.741 11.724 66.928 45.769 71.944 84.44l-18.511 4.083c-1.618.357-3.278-.133-4.443-1.311l-20.176-20.395c-4.807-4.859-11.66-6.882-18.338-5.409l-28.006 6.178c-1.615.358-3.279-.132-4.444-1.311l-20.168-20.389c-4.808-4.861-11.665-6.884-18.339-5.411l-28.004 6.178c-1.618.357-3.279-.133-4.444-1.312l-13.324-13.476c19.146-22.604 47.588-36.023 77.581-36.023zm-4.609 227.087c-.636 2.155-2.073 3.934-4.047 5.009-1.975 1.075-4.249 1.314-6.403.68l-43.635-12.873c-2.155-.636-3.934-2.073-5.009-4.047-1.074-1.974-1.316-4.248-.68-6.403l2.669-9.048c8.831 5.487 18.46 9.817 28.703 12.838 10.351 3.054 20.787 4.579 31.087 4.741zm-24.157-28.231c-39.967-11.791-67.236-46.156-72.027-85.098l7.72 7.808c4.808 4.862 11.665 6.887 18.342 5.413l28.003-6.178c1.619-.358 3.28.133 4.444 1.31l20.167 20.39c4.808 4.861 11.664 6.884 18.34 5.411l28.006-6.179c1.617-.357 3.279.133 4.443 1.311l20.176 20.395c3.774 3.815 8.809 5.88 14.029 5.88 1.429 0 2.874-.155 4.309-.471l10.731-2.367c-25.161 30.107-66.716 44.167-106.683 32.375zm129.676-86.898c-.327 3.176-.81 6.345-1.441 9.475-.783 3.883-1.764 7.635-2.99 11.42-1.741 5.376-3.935 10.612-6.543 15.617l-25.981 5.731c-1.617.357-3.278-.133-4.443-1.311l-20.176-20.395c-3.774-3.815-8.81-5.881-14.029-5.881-1.43 0-2.874.155-4.309.472l-28.006 6.178c-1.615.36-3.279-.133-4.444-1.311l-20.168-20.391c-4.808-4.86-11.663-6.882-18.339-5.41l-28.004 6.178c-1.619.357-3.279-.133-4.444-1.312l-18.704-18.917c.285-3.053.705-6.113 1.277-9.173.004-.023.008-.046.013-.07 1.196-6.4 2.931-12.394 5.289-18.418 2.222-5.677 4.928-11.048 8.036-16.099l11.572 11.703c4.807 4.863 11.665 6.886 18.342 5.413l28.003-6.178c1.619-.358 3.28.134 4.444 1.311l20.168 20.39c4.807 4.86 11.664 6.884 18.339 5.41l28.006-6.179c1.617-.356 3.278.133 4.443 1.311l20.177 20.395c4.807 4.859 11.661 6.882 18.337 5.409l16.093-3.55c-.059 2.669-.237 5.456-.518 8.182z"/><path d="m317.525 93.796c-4.26-1.257-8.733 1.178-9.99 5.438s1.178 8.733 5.438 9.99 8.733-1.178 9.99-5.438c1.258-4.261-1.177-8.733-5.438-9.99z"/><path d="m390.953 115.458c-4.26-1.257-8.733 1.178-9.99 5.438s1.178 8.733 5.438 9.99 8.733-1.178 9.99-5.438c1.258-4.26-1.177-8.733-5.438-9.99z"/><path d="m464.382 137.12c-4.26-1.257-8.733 1.178-9.99 5.438s1.178 8.733 5.438 9.99 8.733-1.178 9.99-5.438-1.178-8.733-5.438-9.99z"/></g></g></g></svg>