<svg id="Capa_1" enable-background="new 0 0 512 512" height="512" viewBox="0 0 512 512" width="512" xmlns="http://www.w3.org/2000/svg"><g><path d="m14.998 91.099h392.379v-30.031h-392.379c-8.279 0-14.998 6.727-14.998 15.016 0 8.288 6.719 15.015 14.998 15.015z"/><path d="m500.067 61.378-2.7.881v28.83c8.109-.19 14.628-6.837 14.628-15.006.001-7.237-5.119-13.283-11.928-14.705z"/><path d="m14.998 211.226h30.047v-30.032h-30.047c-8.279 0-14.998 6.727-14.998 15.016s6.719 15.016 14.998 15.016z"/><path d="m271.401 211.226c52.105-14.739 52.251-15.404 61.114-15.176.26-5.035 1.07-10.011 2.39-14.856h-199.869v30.032z"/><path d="m0 436.463c0 8.289 6.719 15.016 14.998 15.016h33.046c2.86-10.871 8.249-21.122 15.658-30.032h-48.704c-8.279.001-14.998 6.728-14.998 15.016z"/><path d="m496.997 421.448h-120.657c0 12.798.253 19.511-2.72 30.032h123.377c8.279 0 14.998-6.727 14.998-15.016s-6.718-15.016-14.998-15.016z"/><path d="m496.997 301.321h-120.657v30.032h120.657c8.279 0 14.998-6.727 14.998-15.016.001-8.289-6.718-15.016-14.998-15.016z"/><path d="m327.263 226.627-165.325 46.77c-6.46 1.827-10.92 7.729-10.92 14.45v135.08c-39.07-13.611-82.996 19.124-74.267 55.63 4.666 19.516 23.647 33.443 47.479 33.443 27.239 0 50.748-17.949 55.791-40.735 1.397-3.671.993 2.586.993-93.709l135.328-36.169v51.71c-38.652-13.45-83.179 18.249-74.253 54.955 9.277 38.144 68.031 44.865 94.553 11.018 7.109-9.074 10.431-19.858 9.517-30.327.267-1.813.18 11.336.18-187.665.001-9.961-9.521-17.154-19.076-14.451z"/><path d="m75.042 136.147v136.609c-38.879-13.346-82.639 18.926-73.892 55.057 4.651 19.21 23.484 33.03 47.303 33.03 26.491-.005 49.584-16.897 55.264-38.902 1.89-4.209 1.322 8.309 1.322-185.794 0-8.293-6.715-15.016-14.998-15.016s-14.999 6.723-14.999 15.016z"/><path d="m410.782 241.659c33.071 0 59.718-26.097 56.27-53.744.471-2.266.317 7.739.317-147.483l34.258-11.13c7.879-2.56 12.194-11.03 9.637-18.917-2.557-7.888-11.014-12.206-18.895-9.648l-44.627 14.499c-6.182 2.008-10.369 7.775-10.369 14.283v124.055c-38.879-13.346-82.639 18.924-73.892 55.057 4.662 19.266 23.551 33.028 47.301 33.028z"/><path d="m497.367 181.204c0 12.999.366 19.506-2.49 30.022h2.12c8.279 0 14.998-6.727 14.998-15.016.001-8.168-6.518-14.815-14.628-15.006z"/></g></svg>