<?xml version="1.0" encoding="iso-8859-1"?>
<!-- Generator: Adobe Illustrator 19.0.0, SVG Export Plug-In . SVG Version: 6.00 Build 0)  -->
<svg version="1.1" id="Capa_1" xmlns="http://www.w3.org/2000/svg" xmlns:xlink="http://www.w3.org/1999/xlink" x="0px" y="0px"
	 viewBox="0 0 512 512" style="enable-background:new 0 0 512 512;" xml:space="preserve">
<g>
	<g>
		<path d="M85.338,213.333c-0.001,0-0.003,0-0.004,0c-4.712-0.001-8.532,3.817-8.533,8.529c0,0.001,0,0.003,0,0.004v17.067
			c0,4.713,3.82,8.533,8.533,8.533s8.533-3.82,8.533-8.533v-17.067C93.868,217.155,90.049,213.335,85.338,213.333z"/>
	</g>
</g>
<g>
	<g>
		<path d="M153.6,213.333c-4.713,0-8.533,3.82-8.533,8.533v17.067c0,4.713,3.821,8.533,8.533,8.533c4.713,0,8.533-3.82,8.533-8.533
			v-17.067C162.133,217.154,158.313,213.333,153.6,213.333z"/>
	</g>
</g>
<g>
	<g>
		<path d="M221.867,213.333c-4.713,0-8.533,3.82-8.533,8.533v17.067c0,4.713,3.82,8.533,8.533,8.533s8.533-3.82,8.533-8.533v-17.067
			C230.4,217.154,226.58,213.333,221.867,213.333z"/>
	</g>
</g>
<g>
	<g>
		<path d="M426.677,213.333c-0.003,0-0.007,0-0.01,0c-4.71-0.003-8.531,3.813-8.533,8.523c0,0.003,0,0.007,0,0.01v17.067
			c0,4.713,3.82,8.533,8.533,8.533s8.533-3.82,8.533-8.533v-17.067C435.203,217.157,431.387,213.336,426.677,213.333z"/>
	</g>
</g>
<g>
	<g>
		<path d="M358.4,213.333c-4.713,0-8.533,3.82-8.533,8.533v17.067c0,4.713,3.82,8.533,8.533,8.533s8.533-3.82,8.533-8.533v-17.067
			C366.933,217.154,363.113,213.333,358.4,213.333z"/>
	</g>
</g>
<g>
	<g>
		<path d="M290.133,213.333c-4.713,0-8.533,3.82-8.533,8.533v17.067c0,4.713,3.82,8.533,8.533,8.533s8.533-3.82,8.533-8.533v-17.067
			C298.667,217.154,294.846,213.333,290.133,213.333z"/>
	</g>
</g>
<g>
	<g>
		<path d="M494.933,264.533h-25.6V42.667C469.333,19.103,450.231,0,426.667,0S384,19.103,384,42.667v8.752
			c-7.343-5.644-16.338-8.719-25.6-8.752c-23.553,0.028-42.639,19.114-42.667,42.667v0.218
			c-18.414-14.19-44.845-10.766-59.036,7.648c-0.237,0.307-0.469,0.618-0.697,0.931c-13.676-18.799-40.003-22.953-58.802-9.277
			c-0.314,0.228-0.624,0.461-0.931,0.697v-0.218c-0.028-23.553-19.114-42.639-42.667-42.667c-9.262,0.032-18.257,3.107-25.6,8.752
			v-8.752C128,19.103,108.897,0,85.333,0S42.667,19.103,42.667,42.667v221.867h-25.6C7.645,264.544,0.011,272.179,0,281.6v213.333
			c0.011,9.421,7.645,17.056,17.067,17.067h477.867c9.421-0.012,17.054-7.646,17.067-17.067V281.6
			C511.988,272.179,504.354,264.546,494.933,264.533z M42.667,494.933h-25.6V281.6h25.6V494.933z M358.4,59.733
			c14.138,0,25.6,11.461,25.6,25.6s-11.461,25.6-25.6,25.6s-25.6-11.462-25.6-25.6C332.815,71.201,344.268,59.749,358.4,59.733z
			 M332.8,119.248c15.072,11.669,36.128,11.669,51.2,0v145.285h-51.2V119.248z M290.133,93.867c14.138,0,25.6,11.461,25.6,25.6
			s-11.461,25.6-25.6,25.6s-25.6-11.461-25.6-25.6C264.549,105.335,276.001,93.882,290.133,93.867z M264.533,153.382
			c15.072,11.669,36.128,11.669,51.2,0v111.151h-51.2V153.382z M221.867,93.867c14.138,0,25.6,11.461,25.6,25.6
			s-11.461,25.6-25.6,25.6s-25.6-11.461-25.6-25.6C196.282,105.335,207.735,93.882,221.867,93.867z M196.267,153.382
			c15.072,11.669,36.128,11.669,51.2,0v111.151h-51.2V153.382z M153.6,59.733c14.138,0,25.6,11.461,25.6,25.6
			s-11.461,25.6-25.6,25.6c-14.139,0-25.6-11.462-25.6-25.6C128.015,71.201,139.468,59.749,153.6,59.733z M128,119.248
			c15.072,11.669,36.128,11.669,51.2,0v0.218v145.067H128V119.248z M85.333,17.067c14.138,0,25.6,11.462,25.6,25.6
			s-11.462,25.6-25.6,25.6s-25.6-11.461-25.6-25.6C59.749,28.535,71.201,17.082,85.333,17.067z M59.733,76.582
			c15.072,11.669,36.128,11.669,51.2,0v187.952h-51.2V76.582z M145.067,494.933H128V324.267c0-4.713,3.82-8.533,8.533-8.533
			s8.533,3.82,8.533,8.533V494.933z M349.867,494.933H327.8l-40.166-40.166c-3.353-3.311-8.755-3.277-12.066,0.076
			c-3.282,3.323-3.282,8.667,0,11.99l28.1,28.1h-39.133v-17.067c0-4.713-3.82-8.533-8.533-8.533s-8.533,3.82-8.533,8.533v17.067
			h-39.133l28.1-28.1c3.311-3.353,3.278-8.755-0.075-12.066c-3.323-3.282-8.669-3.282-11.992,0L184.2,494.933h-22.067v-76.8h187.733
			V494.933z M349.867,401.067H332.8v-34.133c0-4.713-3.82-8.533-8.533-8.533s-8.533,3.82-8.533,8.533v34.133h-17.067v-34.133
			c0-4.713-3.82-8.533-8.533-8.533s-8.533,3.82-8.533,8.533v34.133h-17.067v-34.133c0-4.713-3.82-8.533-8.533-8.533
			s-8.533,3.82-8.533,8.533v34.133H230.4v-34.133c0-4.713-3.82-8.533-8.533-8.533s-8.533,3.82-8.533,8.533v34.133h-17.067v-34.133
			c0-4.713-3.82-8.533-8.533-8.533s-8.533,3.82-8.533,8.533v34.133h-17.067v-59.733h187.733V401.067z M384,494.933h-17.067V324.267
			c0-4.713,3.82-8.533,8.533-8.533s8.533,3.82,8.533,8.533V494.933z M452.267,494.933h-51.2V324.267
			c-0.015-14.132-11.468-25.585-25.6-25.6c-14.132,0.015-25.585,11.468-25.6,25.6H162.133c0-14.138-11.462-25.6-25.6-25.6
			s-25.6,11.462-25.6,25.6v170.667h-51.2V281.6h392.533V494.933z M452.267,264.533h-51.2V76.582c15.072,11.669,36.128,11.669,51.2,0
			V264.533z M426.667,68.267c-14.138,0-25.6-11.461-25.6-25.6c0.015-14.132,11.468-25.585,25.6-25.6c14.138,0,25.6,11.462,25.6,25.6
			S440.805,68.267,426.667,68.267z M469.333,494.933V281.6h25.6l0.017,213.333H469.333z"/>
	</g>
</g>
<g>
</g>
<g>
</g>
<g>
</g>
<g>
</g>
<g>
</g>
<g>
</g>
<g>
</g>
<g>
</g>
<g>
</g>
<g>
</g>
<g>
</g>
<g>
</g>
<g>
</g>
<g>
</g>
<g>
</g>
</svg>
