<?xml version="1.0" encoding="iso-8859-1"?>
<!-- Generator: Adobe Illustrator 18.1.1, SVG Export Plug-In . SVG Version: 6.00 Build 0)  -->
<svg version="1.1" id="Capa_1" xmlns="http://www.w3.org/2000/svg" xmlns:xlink="http://www.w3.org/1999/xlink" x="0px" y="0px"
	 viewBox="0 0 29.39 29.39" style="enable-background:new 0 0 29.39 29.39;" xml:space="preserve">
<g>
	<path d="M21.229,25.111v4.279l4.93-5.984l-3.317,0.092C21.95,23.498,21.229,24.221,21.229,25.111z"/>
	<path d="M24.547,0H4.84C3.95,0,3.231,0.721,3.231,1.607v26.17c0,0.891,0.719,1.613,1.609,1.613h14.789v-5.707
		c0-0.887,0.725-1.609,1.613-1.609h4.916V1.607C26.159,0.721,25.44,0,24.547,0z M14.889,9.277l-0.037,12.957h-0.004
		c-0.007,1.092-0.992,2.16-2.405,2.51c-1.608,0.404-3.29-0.361-3.472-1.502c-0.307-1.234,0.744-2.561,2.352-2.963
		c0.727-0.178,1.436-0.143,2.028,0.064V6.703c0,0,0.081-0.602,0.87-0.693c0,0-0.011,0.682,4.131,3.576
		c2.125,1.637,2.117,3.869,2.117,3.869C17.708,9.129,14.889,9.277,14.889,9.277z"/>
	<g>
	</g>
	<g>
	</g>
	<g>
	</g>
	<g>
	</g>
	<g>
	</g>
	<g>
	</g>
	<g>
	</g>
	<g>
	</g>
	<g>
	</g>
	<g>
	</g>
	<g>
	</g>
	<g>
	</g>
	<g>
	</g>
	<g>
	</g>
	<g>
	</g>
</g>
<g>
</g>
<g>
</g>
<g>
</g>
<g>
</g>
<g>
</g>
<g>
</g>
<g>
</g>
<g>
</g>
<g>
</g>
<g>
</g>
<g>
</g>
<g>
</g>
<g>
</g>
<g>
</g>
<g>
</g>
</svg>
