<svg id="Capa_1" enable-background="new 0 0 512 512" height="512" viewBox="0 0 512 512" width="512" xmlns="http://www.w3.org/2000/svg"><g><path d="m64.891 361.531 8.485-8.485c2.929-2.929 2.929-7.678 0-10.606-2.93-2.929-7.678-2.929-10.607 0l-8.485 8.485c-2.929 2.929-2.929 7.678 0 10.606 2.929 2.929 7.677 2.93 10.607 0z"/><path d="m153.208 449.847 8.485-8.485c2.929-2.929 2.929-7.678 0-10.606-2.93-2.929-7.678-2.929-10.607 0l-8.485 8.485c-2.929 2.929-2.929 7.678 0 10.606 2.929 2.929 7.676 2.929 10.607 0z"/><path d="m94.87 383.009c-16.726-1.179-7.402 40.361 23.284 38.249 4.133-.284 7.253-3.864 6.969-7.996-.284-4.133-3.865-7.249-7.996-6.969-8.67.598-15.885-6.578-15.288-15.288.283-4.133-2.838-7.712-6.969-7.996z"/><path d="m116.487 288.98c-5.891 0-10.505 5.284-9.492 11.235 1.812 10.499 10.868 18.119 21.534 18.119 14.029 0 25.443-11.414 25.443-25.443 0-6.772.202-13.65.202-20.593 0-9.066 11.115-13.671 15.779-7.907-.861 1.222-1.367 2.711-1.367 4.318 0 10.934 17.705 9.646 17.705-2.104 0-8.252-8.343-19.75-21.674-19.75-14.029 0-25.443 11.414-25.443 25.443 0 6.771-.202 13.65-.202 20.593 0 9.352-11.705 13.825-16.085 7.501.697-1.139 1.1-2.479 1.1-3.912 0-4.142-3.357-7.5-7.5-7.5z"/><path d="m239.702 357.826c-6.942 0-13.821.202-20.593.202-14.029 0-25.443 11.414-25.443 25.443 0 10.666 7.62 19.723 18.132 21.536 5.905 1.007 11.223-3.576 11.223-9.494 0-5.879-6.456-9.435-11.41-6.401-6.359-4.401-1.812-16.084 7.499-16.084 6.942 0 13.821-.202 20.593-.202 14.029 0 25.443-11.414 25.443-25.443 0-13.303-11.488-21.674-19.75-21.674-11.707 0-13.078 17.705-2.104 17.705 1.607 0 3.097-.506 4.317-1.367 5.751 4.654 1.179 15.779-7.907 15.779z"/><path d="m505.543 94.239c-2.385-2.384-5.225-4.088-8.383-5.105l8.247-8.242c4.251-4.252 6.593-9.905 6.593-15.919 0-6.012-2.341-11.665-6.593-15.917v-.001l-42.462-42.46c-4.253-4.253-9.906-6.595-15.918-6.595-6.014 0-11.667 2.342-15.916 6.593l-8.341 8.336c-.963-3.226-2.648-6.096-5.025-8.474-4.162-4.162-9.971-6.454-16.354-6.454-8.475 0-17.239 3.903-24.047 10.709 0 0-.001.001-.001.001-16.212 16.213-13.307 39.586 4.032 45.593-6.831 6.827 5.162-5.164-59.027 59.025-37.61-14.254-79.512-9.939-113.069 11.06-12.357 7.731-16.747 24.425-8.709 37.238 9.595 15.285 7.89 36.359-6.889 49.794-14.641 13.309-37.289 13.379-52.017.408-.869-.766-2.832-2.779-6.212-7.669-12.2-17.637-36.849-21.773-53.929-8.236-2.789 2.21-5.492 4.384-8.035 6.46-3.209 2.62-3.686 7.345-1.066 10.553 2.618 3.208 7.343 3.686 10.553 1.066 2.487-2.03 5.133-4.158 7.865-6.323 10.282-8.147 25.002-5.504 32.274 5.013 3.317 4.798 6.143 8.198 8.637 10.394 20.438 18 51.702 17.903 72.02-.565 20.447-18.589 22.76-47.746 9.505-68.867-3.556-5.667-1.524-13.117 3.959-16.549 28.134-17.605 62.428-21.619 93.328-11.99-34.44 34.439-69.451 69.45-70.321 70.319-8.798 8.8-8.797 23.039 0 31.838l5.339 5.339-100.182 100.18-5.782-5.782c-2.93-2.928-7.678-2.928-10.607 0-2.929 2.93-2.929 7.678 0 10.607l5.782 5.782-6.984 6.984c-2.929 2.929-2.929 7.678 0 10.606 2.93 2.929 7.678 2.929 10.607 0l6.983-6.984 10.624 10.623-6.984 6.984c-2.929 2.929-2.929 7.678 0 10.606 2.93 2.929 7.678 2.929 10.607 0l6.983-6.983 5.754 5.754c1.465 1.464 3.385 2.196 5.304 2.196 6.624 0 10.041-8.065 5.304-12.804l-5.754-5.754 100.182-100.182 5.284 5.284c8.799 8.797 23.038 8.797 31.837 0l70.264-70.264c9.403 30.4 5.698 64.657-12.059 93.067-3.443 5.507-10.924 7.546-16.617 3.98-21.142-13.246-50.344-10.901-68.919 9.629-18.41 20.345-18.431 51.577-.439 71.963 2.188 2.48 5.567 5.287 10.329 8.581 10.534 7.286 13.146 22.029 4.96 32.358-18.778 23.702-56.704 75.957-135.298 75.957-52.771 0-99.616-27.148-126.934-68.771 74.32-31.261 74.406-136.294.238-167.739 5.991-9.056 12.964-17.479 20.84-25.152 2.967-2.89 3.029-7.639.139-10.605s-7.638-3.031-10.605-.139c-32.447 31.606-50.438 74.289-50.438 119.791 0 94.407 76.299 167.615 166.76 167.615 47.203 0 89.579-19.209 119.254-49.392 7.363-7.409 16.717-18.258 27.8-32.245 13.618-17.184 9.414-41.839-8.183-54.011-4.849-3.354-6.852-5.305-7.615-6.17-12.981-14.71-12.934-37.332.315-51.975 13.398-14.807 34.5-16.587 49.832-6.98 12.752 7.984 29.5 3.734 37.301-8.742 20.779-33.246 25.378-75.083 11.134-112.812l9.834-9.834c2.929-2.93 2.929-7.678 0-10.607-2.93-2.928-7.678-2.928-10.607 0-3.699 3.699-85.205 85.205-91.894 91.894-2.934 2.936-7.688 2.936-10.622 0l-5.284-5.284 137.161-137.161 10.595 10.595-18.683 18.683c-2.929 2.93-2.929 7.678 0 10.607 1.465 1.464 3.385 2.196 5.304 2.196s3.839-.732 5.304-2.196c29.02-29.02 24.234-24.235 28.05-28.049 5.497 17.125 29.026 20.643 45.528 4.143 6.811-6.81 10.716-15.579 10.716-24.059 0-6.388-2.293-12.199-6.457-16.362zm-490.543 250.146c0-25.104 6.017-49.285 17.354-70.858 28.744 11.263 48.352 39.556 48.352 70.785 0 31.32-19.683 59.639-48.538 70.854-11.215-21.537-17.168-45.682-17.168-70.781zm372.949-323.067c6.739-6.736 15.482-7.962 19.188-4.257 3.44 3.44 1.173 12.315-5.698 19.188-5.449 5.45-13.316 8.684-17.746 4.256-3.713-3.713-2.467-12.463 4.256-19.187zm-137.102 186.724c1.58-1.579 129.994-129.992 131.853-131.851l10.65 10.65-137.162 137.162-5.339-5.339c-2.94-2.938-2.932-7.693-.002-10.622zm-84.218 147.981-10.624-10.623 100.182-100.182 10.623 10.623zm110.789-110.79-10.623-10.623 137.161-137.162 10.623 10.624zm213.261-121.182c-6.772 6.77-15.512 7.952-19.204 4.26-3.976-3.976-1.098-12.404 4.983-18.485 6.331-6.332 14.639-8.818 18.479-4.979 3.718 3.716 2.473 12.474-4.258 19.204zm4.123-53.768-48.412 48.386-53.082-53.083 18.734-18.725c.002-.002.003-.003.005-.005.001-.001.003-.003.004-.005l29.666-29.651c2.936-2.935 7.686-2.935 10.622.001l42.461 42.459c2.938 2.94 2.933 7.692.002 10.623z"/></g></svg>