<?xml version="1.0"?>
<svg xmlns="http://www.w3.org/2000/svg" width="512" height="512" viewBox="0 0 512 512"><g><path d="M496,256a8,8,0,0,0,8-8V216a8,8,0,0,0-8-8H16a8,8,0,0,0-8,8v32a8,8,0,0,0,8,8H40V432H16a8,8,0,0,0-8,8v32a8,8,0,0,0,8,8H496a8,8,0,0,0,8-8V440a8,8,0,0,0-8-8H472V256ZM24,224H488v16H24ZM352,376V312h32v64Zm-8-80a8,8,0,0,0-8,8v80a8,8,0,0,0,8,8h16v40H264V392h16a8,8,0,0,0,8-8V304a8,8,0,0,0-8-8H264V256h96v40ZM160,312v64H128V312Zm-8,80h16a8,8,0,0,0,8-8V304a8,8,0,0,0-8-8H152V256h96v40H232a8,8,0,0,0-8,8v80a8,8,0,0,0,8,8h16v40H152Zm88-16V312h32v64ZM56,256h80v40H120a8,8,0,0,0-8,8v80a8,8,0,0,0,8,8h16v40H56ZM488,464H24V448H488Zm-32-32H376V392h16a8,8,0,0,0,8-8V304a8,8,0,0,0-8-8H376V256h80Z"/><path d="M88,264H72a8,8,0,0,0,0,16H88a8,8,0,0,0,0-16Z"/><path d="M120,280a8,8,0,0,0,0-16h-8a8,8,0,0,0,0,16Z"/><path d="M59.849,184.171a47.687,47.687,0,0,0,24.959,7.072,48.344,48.344,0,0,0,11.331-1.354,48,48,0,0,0,36.641-49.972L467.865,59.184a8,8,0,1,0-3.748-15.555L129.032,124.362a48,48,0,1,0-69.183,59.809ZM77.4,112.115a32.232,32.232,0,0,1,7.555-.9,32.034,32.034,0,0,1,31.05,24.516h0A32,32,0,1,1,77.4,112.115Z"/></g></svg>
